<?xml version="1.0" encoding="utf-8"?>
<!-- Generator: Adobe Illustrator 22.1.0, SVG Export Plug-In . SVG Version: 6.00 Build 0)  -->
<svg version="1.1" id="Layer_1" xmlns="http://www.w3.org/2000/svg" xmlns:xlink="http://www.w3.org/1999/xlink" x="0px" y="0px"
	 viewBox="0 0 512 512" style="enable-background:new 0 0 512 512;" xml:space="preserve">
<style type="text/css">
	.st0{fill:#FFFFFF;}
</style>
<g>
	<g>
		<path class="st0" d="M487.7,368.1c0-2.5,0-6.3,0-8.9c0-1.3,0-1.9,0-3.2c0-3.2,0-6.3-0.6-8.9c-0.6-3.2,0.6-8.9-0.6-10.8
			c0-0.6,0.6-0.6,1.3-1.3c0-50,0-99.9,0-149.3c0-13.3,0-26.6,0-39.9c0-3.8,0.6-8.9-0.6-12c0-1.3,0-2.5-0.6-3.8
			c-1.3-0.6-2.5-0.6-3.8-1.3s-2.5-1.3-3.8-1.3c-3.8,0-7.6,0-11.4,0c-13.3,0-25.9,0-39.2,0c-20.9,0-41.1,0-62,0c-1.9,0-3.8,0-5.7-0.6
			c-1.9-0.6-4.4,0.6-6.3,0c-4.4,0-8.9,0-12.7,0c-2.5,0-5.7,0-8.9,0s-5.7,0-8.9,0c-2.5,0-5.1,0-8.2,0c-2.5,0.6-5.7,0-8.2,0
			c-3.8,0-8.9,0.6-12,0c-2.5,0-5.1,0-7.6,0c-1.9-0.6-5.7,0.6-8.2,0c-1.9-0.6-5.7,0.6-8.2,0c-1.9-0.6-7.6,0-10.1,0c-3.2,0-7,0-10.1,0
			c-1.3,0-3.8,0-4.4,0c-0.6,0-1.3,0.6-1.3,1.3c-3.2,0-3.8,0-5.7,0c-15.8,0-31.6,0-47.4,0c-8.2,0-20.9,0-23.4,0c-4.4,0-8.2,0-12.7,0
			c-18.3,0-36.1,0-54.4,0c-1.3,0-2.5,0-3.8,0c-3.2,0-7.6,0-11.4,0c-12,0-23.4,0-35.4,0c-3.8,0-8.2,0-12,0c-1.9,0-5.7-0.6-7,0
			c-0.6,0-1.9,0-2.5,0c-1.3,0-1.9,0.6-3.2,1.3c0,4.4,0,9.5,0,13.9c0,2.5,0,4.4-1.3,5.7c0,2.5,0,6.3,0,8.2c0.6,1.9,0,3.8,0,5.1
			c0,0.6,0,1.9,0,2.5c0,2.5,0,5.1,0,7.6c0,0.6,0,1.9,0,2.5c0,2.5,0,5.7,0,7.6c0,2.5,0,4.4,0,7c0,0.6,0,2.5,0,3.2
			c0,19.6,0,39.2,0,58.8c0,4.4,0,8.9,0,13.9c0,2.5,0.6,4.4-1.3,5.7c0,2.5,0,5.7,0.6,8.2c0.6,1.3,0,2.5,0,3.8c0.6,1.9,0,4.4,0.6,6.3
			c0,32.3,0,63.3,0,95.5c25.9,0,51.2,0,77.2,0c1.3-0.6,3.2-0.6,4.4-1.3c1.9,0,3.2,0,5.1,0c1.3,0,3.2,0,4.4,0c2.5,0.6,5.7,0,7.6,0
			c2.5,0.6,5.1-0.6,7.6,0c1.3,0,2.5,0,3.8,0c2.5,0,4.4,0,7,0c1.3,0,3.8,0,5.1,0c7.6,0,15.2,0,22.8,0c1.3,0,4.4,0,6.3,0
			c4.4,0,8.2,0,12.7,0c12.7,0,25.9,0,38.6,0c7,0,14.5,0,21.5,0c1.9,0.6,5.7,0.6,8.2,0c1.3,0,3.2,0,3.8,0c1.3,0,3.2,0,3.8,0
			c2.5,0,5.1,0,7.6,0c1.3,0,2.5,0,3.8,0c0.6,0,4.4-0.6,5.1,0c2.5,0.6,7,0,9.5,0c1.3,0,2.5,0,3.8,0c1.3,0,4.4,0,7,0
			c1.3,0,3.8,0,5.7,0c3.8,0,7,0,10.8,0c23.4,0,46.2,0,69.6,0c17.1,0,34.8,0,51.9,0c6.3-0.6,13.3-0.6,19.6-1.3c1.9,0.6,5.1,0.6,7,1.3
			c6.3,0,12.7,0,19,0C488.3,377.6,488.3,373.8,487.7,368.1z M351.7,243.5c-0.6,1.3,0,3.2,0,4.4c-0.6,1.3,0,3.2,0,5.1
			c-0.6,1.3,0,3.2,0,4.4c0,2.5,0,4.4,0,7c0,0.6,0,1.9,0,2.5c0,24,0,47.4,0,71.5c0,9.5,0,19,0,28.5c-0.6,1.3-1.9,2.5-2.5,3.8
			c-1.3,0-2.5,0-3.2,0c-10.1,0-20.9,0-31,0c-1.9,0-4.4,0-6.3,0c-1.3-0.6-3.8-1.3-6.3-0.6c-1.3,0-3.2,0-4.4,0
			c-3.8,0.6-8.9,0-12.7,0.6c-1.3,0-3.2,0-4.4,0s-2.5,0-3.8,0c-1.9,0.6-3.8,0-5.7,0c-3.8,0-7.6,0-11.4,0c-14.5,0-28.5,0-43,0
			c-58.2,0-116.4,0-174.6,0c0-32.3,0-64.5,0-96.8c0-8.2,0-15.8,0-23.4c0-2.5,0-5.1,0-7s0-3.8,0-5.1c0-0.6,0-1.9,0-2.5
			c0-2.5,0-6.3,0-8.9c0-3.2,0-7,0-10.1c0-9.5-0.6-19.6-0.6-29.1c0-2.5,0-5.7,0-8.2c0-0.6,0-2.5,0-3.2c0-1.3,0.6-1.3,1.3-2.5
			c0.6-0.6,0-3.8,0-5.1c0-4.4,0-9.5,0-13.9c0-1.3,0.6-5.1,0-5.7c0-1.3-0.6-6.3,0-7c0.6-0.6,5.1-1.3,7-1.3c1.3,0,2.5,0,3.8,0
			c1.3,0,2.5,0,3.8,0c2.5,0,5.1,0,7.6,0c19.6,0,39.2,0,58.2,0c48.7,0,96.8,0,145.5,0c25.9,0,51.2,0,77.2,0c2.5,0.6,5.1,1.3,7.6,1.3
			c0,8.9-0.6,17.7-0.6,26.6c0,21.5,0,43,0,63.9c0,1.9,0,3.8,0,5.7c0,0.6,0.6,1.9,0.6,2.5C352.3,241.6,352.3,242.9,351.7,243.5z
			 M470.6,344.7c0,3.8,0,8.2,0,12l-0.6,0.6c-0.6,0.6,0,1.9,0,1.9c0,0.6,0,2.5,0,3.2c0,0.6,0,0.6,0,0.6c-0.6,0-1.3,0.6-1.9,0.6
			c0.6,0.6,1.3,1.3,1.3,1.9c0,1.3,0,3.2,0.6,4.4c-8.2,0-17.1,0-25.3,0c-0.6,0-0.6-0.6-1.3-0.6c-0.6,0-0.6,0-1.3,0
			c-0.6,0-3.2,0-3.8,0c-0.6,0-2.5,0-3.8,0.6c-1.3,0-2.5,0-3.8,0l-0.6-1.3c-0.6-0.6-2.5-2.5-2.5-3.2v-0.6c0-0.6-1.3-1.3-1.3-1.9
			c-0.6-0.6-1.3-1.3-1.9-1.9c-1.3-1.9-2.5-3.8-4.4-5.7c-2.5-3.2-5.7-6.3-7.6-10.1c-2.5-3.2-5.1-5.7-7.6-8.9l0,0c0,1.9,0,4.4,0,6.3
			c0,1.3,0,2.5,0,3.2c0,1.3,0,2.5,0,3.8l-0.6,1.3c0,1.3,0,1.9,0,3.2c0,0.6,0,1.3-0.6,1.9c0,1.3,0,4.4,0,5.7c0,0.6,0,1.9,0,2.5
			c0.6,1.9,0.6,3.8,0.6,5.7c-7,0-14.5,0-21.5,0c-3.8,0-8.9,0-12.7,0c0-0.6-0.6-1.3-0.6-1.9h-0.6c0-1.3,0-1.9-0.6-1.9
			c0-3.8,0-7.6,0-11.4c0-2.5,0-5.7,0.6-8.2c0.6-1.9,0-4.4,0-5.7c0.6-1.9-0.6-2.5-0.6-3.8c0-3.2-0.6-8.2,0-10.8c0-0.6,0-1.9,0-2.5
			c0-0.6,0-1.3-0.6-1.3c0-0.6,1.3-1.3,1.3-1.9l0,0c-0.6-0.6-1.9-2.5-0.6-3.8c0-1.3,0-3.2,0-4.4h-0.6c0-2.5,0-5.7,0-8.2
			c3.2,0,6.3,0,9.5,0c0.6,0,0.6,0.6,1.3,1.3c0,0,1.9,0,2.5,0s0.6-0.6,1.3-0.6c1.3,0,6.3,0,7,0c1.3,0,3.2,0,3.8-0.6
			c4.4,0,8.2,0,12.7,0c0.6,0,1.3,1.3,1.3,1.9c1.3,1.3,2.5,2.5,3.2,3.8c0.6,0.6,0.6,0.6,1.3,1.3c0.6,0.6,0,1.9,0.6,2.5
			c0.6,0.6,1.3,1.3,1.9,1.9c1.3,1.3,2.5,2.5,3.8,3.8c0.6,0,0.6,0,1.3,0.6c1.9,2.5,4.4,5.1,6.3,7.6c0.6,0.6,1.3,1.9,1.3,2.5
			c0,0.6,0.6,1.3,0.6,1.3c0.6,0.6,1.3,0.6,1.9,0.6c1.3,1.3,2.5,2.5,3.8,3.8l0,0c0-8.2,0.6-15.8,0.6-24c0-0.6,0-1.3,0-1.9
			c0,0,0,0,0.6,0c0-2.5,0-4.4,0-7c0.6,0,1.3,0,1.3-0.6c5.7,0,11.4,0,17.1,0c0.6,0,0,0.6,0,1.3c0.6,0,1.3,0.6,1.3,0.6
			c0.6,0,1.3,1.3,1.9,1.9c1.3,0,1.3-1.9,2.5-2.5c1.3-0.6,5.7-0.6,8.2-0.6c0,0,0,0,0-0.6c1.3,0,2.5,0,3.8,0c0,3.2,0,7,0,10.1
			c0,0.6-1.3,1.9-1.3,3.2c0,0.6,0.6,0.6,0.6,0.6c0,2.5,0,5.7,0,8.2c0,0.6-0.6,0.6-0.6,1.3c0.6,0.6,0,1.9,0.6,3.2
			C470.6,333.3,470.6,339.6,470.6,344.7z M472.5,257.4c0,1.3,0,2.5,0,3.8l0,0c0,0.6,0,2.5,0,3.2c0,1.3,0,3.2,0,4.4
			c0,0.6,0,1.9,0,2.5s0,1.9,0,2.5c-0.6,2.5-1.3,5.1-3.2,6.3c-5.1,3.8-10.1,5.7-16.4,7.6c-2.5,0.6-4.4,0.6-7,1.3c-0.6,0-1.3,0-2.5,0
			c-3.2,0.6-6.3,0.6-8.9,1.3c-0.6,0-1.3,0-1.9,0c-1.9,0.6-3.8,0-5.7,0c-0.6,0-1.3,0-1.9,0c-1.3,0.6-5.7,0.6-7,0c-3.2,0-5.7,0-8.9,0
			c-4.4-0.6-8.2-0.6-12.7-1.3c-0.6,0-0.6-0.6-1.3-1.3c-0.6,0-1.3,0.6-1.9,0c-1.9-0.6-3.8-0.6-5.1-1.3c-0.6,0-1.3,0.6-1.3,0
			c-0.6,0-1.9-0.6-2.5-0.6c-1.3-0.6-2.5-0.6-3.8-0.6c-3.8-1.3-7-3.2-10.1-5.7c-2.5-1.9-3.2-4.4-3.8-7.6c0-0.6,0-1.9,0-2.5
			c0-1.3,0.6-4.4,0-5.7c0-0.6,0-1.9,0-2.5h0.6c0-1.3,0.6-1.9,0.6-3.2c0-0.6-0.6-1.3-0.6-1.3c0-0.6-0.6-1.9-0.6-2.5
			c0-1.9,0-3.8,0-5.7c0-5.1,0-12.7,1.9-15.8c1.3-1.9,3.2-2.5,5.1-3.8c0.6-0.6,1.3-1.3,1.9-1.3c3.2-1.9,7.6-2.5,12-3.8
			c4.4-1.3,9.5-1.9,14.5-2.5c1.3,0,5.1-0.6,5.7,0c0.6,0,1.3-0.6,1.3-0.6c0.6,0,1.9,0,2.5,0c2.5-0.6,5.1,0,8.2,0s7,0,9.5,0.6
			c0.6,0,1.3,0,1.3,0c1.9,0,3.8,0,5.7,0.6c1.3,0.6,3.2,0,4.4,0.6c3.8,1.3,8.2,1.3,12,2.5c2.5,0.6,5.1,1.3,7,2.5
			c1.3,0.6,1.9,1.3,3.2,1.3c0,0.6,0,1.3,0,1.9c1.3,0,1.3-0.6,1.9-1.3c1.9,1.9,3.8,2.5,5.1,5.1c0.6,1.9,0.6,4.4,1.3,7
			c0,0.6,0,1.3,0,1.9c0,1.3,0,3.2,0,4.4C473.1,249.8,472.5,254.2,472.5,257.4z M475,168.2c-1.3,0-1.9,0-3.2,0c0,0,0-0.6-0.6-0.6
			s-1.3,0.6-1.9,0.6c-2.5,0-5.7,0-8.2,0c-1.9,0-4.4,0-6.3,0c-1.3-0.6-4.4-0.6-5.7-0.6c-0.6,0-0.6,0-0.6,0.6c-3.2,0-6.3,0-10.1,0
			c-0.6,0-1.3-0.6-1.9-0.6c-0.6,0-0.6,0-1.3,0c-0.6,0-0.6-0.6-1.3-0.6l-1.9,1.3c-0.6,0-0.6,0-1.3,0c0-5.1,1.3-16.4-1.9-18.3
			c-3.2-2.5-14.5-1.9-17.1,1.3c-1.9,2.5-1.9,8.9-1.9,13.3h0.6c0,3.2,0,7.6,0,11.4c0,1.9,0,5.1,0,7c-0.6,1.3,0,3.2,0,4.4
			c0,0.6,0,1.9,0,2.5c0,1.9-0.6,1.3-0.6,1.9c0,1.9,0,3.8,0,5.7c0.6,0,0.6,0,1.3-0.6c0.6,0.6,1.3,2.5,2.5,3.2
			c3.2,1.9,12.7,1.9,15.2-0.6c1.3-0.6,1.9-2.5,1.9-3.8c0-0.6,0-1.3,0-1.9c0-2.5,0-4.4,0-7c0-0.6,0-2.5,0-2.5c1.3-1.3,3.8,0.6,5.7,0
			c3.2-1.3,8.9-0.6,12-0.6c1.3,0,3.2,0,4.4,0s4.4,2.5,5.7,1.9c0.6,0,0.6-1.3,1.3-1.9c1.3,0,3.2,0,3.8,0c1.9,0,7-0.6,7.6,0.6
			c1.3,0,1.9,0,2.5,0c0,6.3-0.6,12-3.2,15.2c-1.3,1.3-2.5,1.9-4.4,3.2c-3.2,1.9-8.2,3.2-12,4.4c-1.3,0-3.2,0.6-4.4,0.6
			c-3.2,0.6-7,0.6-10.8,1.9c-1.3,0.6-3.8,0.6-4.4-0.6c-0.6,0-0.6,0.6-1.3,1.3c-1.3,0-2.5,0-3.8,0s-2.5,0-3.8,0c-3.2,0.6-5.7,0-8.2,0
			c0-0.6,0-0.6,0-1.3l0,0c-2.5,0-5.1,0.6-7,1.3c-1.3,0.6-6.3,0-7.6-0.6c-2.5,0-5.1-0.6-7.6-0.6c-2.5-0.6-5.1-0.6-7-1.3
			c-0.6,0-1.3,0-1.3,0c-1.3-0.6-3.2-1.3-4.4-1.9c-0.6,0-1.3,0-2.5,0c-1.3,0-1.9-1.3-2.5-1.9c-0.6,0-1.3,0.6-1.3,0.6
			c-1.3,0-2.5-1.3-3.2-1.9c-3.8-2.5-5.1-5.7-6.3-10.1c-0.6-1.9,0-7.6,0.6-8.2c0-0.6-0.6-1.3-1.3-1.3c0-2.5,0-4.4,0-7
			c0.6,0,1.3-0.6,1.3-0.6c-0.6-0.6-1.3-1.3-1.3-1.9c0.6-1.3,0.6-4.4,0-5.7c0-0.6,0-2.5,0-3.2c0-1.3,0-1.9,0-3.2
			c0.6-1.9,0.6-4.4,1.3-5.7c1.3-3.2,5.1-5.7,8.2-7c1.3-0.6,1.9-1.3,3.2-1.3c0.6,0,1.3,0,1.3,0s0.6-0.6,1.3-0.6
			c0.6,0,1.3,0.6,1.9,1.3c0.6-0.6,1.3-1.9,2.5-2.5c0.6,0,1.3,0,1.9,0v-0.6c0.6,0,1.9,0,2.5-0.6c1.3-0.6,3.8-0.6,5.1-0.6
			c0.6,0,1.3,0,2.5,0c2.5-0.6,5.7-0.6,8.2-1.3c1.3,0,2.5,0,3.8,0c1.9-0.6,5.1,0,7.6,0c3.2-0.6,9.5,0,12,0.6c1.9,0.6,3.2-0.6,4.4,0
			c1.9,0.6,4.4,0.6,7,0.6l0.6,0.6c0,0,1.3-0.6,1.9-0.6c2.5,0.6,5.1,0.6,7.6,1.3c7,1.9,13.9,3.2,19,7c1.3,1.3,2.5,3.2,3.2,5.1
			c0.6,0,0,0,0.6,0C475,157.5,475.7,163.2,475,168.2z"/>
		<path class="st0" d="M428.8,236.5c0-2.5-1.3-5.1-3.2-5.7c-2.5-1.3-10.1-1.3-12.7,0.6c-0.6,0.6-1.9,1.3-1.9,2.5
			c-1.3,3.2-0.6,8.2-0.6,12c0,0.6,0,1.9,0,2.5c0,0,0.6,0,0,0.6c0,0-0.6,0.6-0.6,1.3c-0.6,1.9,1.3,4.4-0.6,5.7c0,0.6,0.6,0.6,0.6,0.6
			c0,3.2,0,6.3,0,9.5c0,1.9,0,3.8,0,5.1s0,1.9,0,3.2c0.6,1.3,0.6,3.2,1.3,4.4c1.9,3.2,11.4,3.2,14.5,0.6c1.3-1.3,1.3-2.5,1.9-3.8
			c0,0,0,0,0.6,0c0-8.9,0-19,0-28.5c0-3.2-0.6-8.9,1.3-10.1C430.1,236.5,429.5,236.5,428.8,236.5z"/>
		<g>
			<path class="st0" d="M128.4,151.8c1.3,0,2.5,0,3.2,0c0.6,0.6,0.6,1.3,1.9,1.3c0.6,0.6,3.2,0,3.8,0c2.5,0,5.7,0,8.9,0
				c1.3,1.3,1.9,3.2,3.8,3.8c0.6,0,1.3,0,1.9,0c0.6,0,1.3,0.6,1.3,0.6c0.6,0.6,1.9,1.9,2.5,2.5c0.6,0.6,1.3,1.3,1.9,1.9
				c1.3,1.3,1.9,2.5,3.2,3.8c0,5.7,0,10.8,0,16.4c-0.6,0.6-1.3,1.3-1.3,2.5v0.6c0,0.6,1.3,1.9,1.9,2.5c0.6,0,1.3,0,1.3,0.6
				c0,3.2,0,5.7,0,8.2c-1.3,0.6-1.3,0.6-1.3,2.5c-0.6,0.6,0,1.9,0,2.5c0,2.5,0,4.4,0,7c0,8.2,0,16.4,0,24.7c1.3,0.6,2.5,1.3,3.2,2.5
				c1.3,1.9,0.6,5.7,1.3,8.2c0,1.3,0.6,3.8,0,5.7c0,1.3,0,2.5,0,3.8c0,2.5,0,5.1,0,7.6c0,1.3,0,2.5,0,3.8c0,1.3,0,2.5,0,3.8
				c-0.6,1.3,0,3.8,0,5.1c-0.6,0.6-1.3,0.6-1.9,1.3c0,3.8,0,8.2,0,12c1.9,1.3,1.9,1.9,1.9,5.7c-0.6,0.6,0,5.1,0,6.3
				c-1.9,0.6-3.2,2.5-3.2,4.4c0.6,1.9,0,1.9,0,4.4v0.6c0,0.6-0.6,0.6-0.6,1.3c-0.6,0.6,0,2.5-0.6,3.2c-0.6,1.9,0,3.8-0.6,5.1
				c0,0.6-1.3,0.6-1.3,1.3s0,1.9,0,2.5c-0.6,1.3,0,5.7,0,7.6c-0.6,1.9-1.3,2.5-1.9,5.1c0.6,0.6,1.3,2.5,1.3,4.4
				c0.6,0,1.3,0.6,1.9,0.6c0.6,0,1.3,0,2.5,0c3.2,0,6.3,0,8.9,0c0.6-0.6,3.8-3.2,5.1-3.8c0.6,0,0.6,0,1.3,0s1.9,0,2.5,0
				c0.6,0,1.3,0.6,1.3,0.6c2.5,0.6,5.1,0.6,7.6,1.3c0.6,0,1.9,0.6,2.5,0.6c1.3,0,2.5-0.6,3.8-1.3c0.6,0,1.3,0,2.5-0.6
				c0.6-0.6,1.3-1.9,2.5-1.9c2.5,0,5.1-0.6,8.2-0.6c1.9-0.6,3.8-0.6,5.7-0.6c1.3,0,2.5,0,3.2,0c3.2-0.6,11.4,0,15.8,0
				c2.5,0,5.7,0,8.2,0c1.3,0,3.2,0,4.4,0c1.9,0.6,3.8,0,5.7,0c1.9,0.6,5.7-0.6,6.3,0.6c0,1.3,0,1.9,0,3.2c0.6,0.6,0,3.8,0,5.1
				c0,2.5,0,4.4,0,7c0,1.3,0,3.2,0,4.4c0.6,3.2,2.5,5.7,3.8,8.9c-3.8,0-8.2,0-12,0c-0.6,0.6-8.2,0-11.4,0c0-1.3-0.6-1.9-1.9-1.3
				c-0.6-0.6-3.8,0-5.1,0c0-0.6-0.6-1.3-0.6-1.9c-1.3,0-2.5-0.6-3.8-0.6c-0.6-0.6,0-1.3-1.3-1.3c-0.6-0.6-3.8,0-5.1,0
				c-1.9,0-5.7,0-7.6,0c-1.3,0-3.2,0-4.4,0c-1.3-0.6-1.9-1.3-3.2-1.9c-0.6,0-1.3,0-1.9,0c-1.9-0.6-4.4,0-6.3,0c-5.7,0-11.4,0-17.1,0
				c-3.8,0-8.2,0-12,0c-1.3,0-3.8,0-4.4,0c-0.6-0.6-1.3-1.3-1.9-1.9c-0.6,0-0.6,0-1.3,0c-2.5-1.3-3.2-1.3-7-1.3c-0.6,0-1.3,0-1.3,0
				c-0.6,0-1.3,1.3-2.5,1.3c-2.5,1.3-4.4,3.2-6.3,5.1c-0.6,0.6-1.3,3.2-2.5,3.2c-0.6-0.6-1.9,0-3.2,0c-1.9-0.6-4.4-0.6-7.6-0.6
				c-0.6,0-1.9,0-2.5,0s-3.8,0.6-3.8,0.6c-0.6-0.6-0.6-1.3-0.6-1.3c-0.6-0.6-1.3-0.6-1.3-1.3c0.6,0,1.9-1.9,1.9-1.9l0,0
				c0-0.6,0-1.3,0-1.3c3.2-1.3,5.7-3.8,8.2-5.7c0.6-0.6,2.5-1.3,2.5-1.9c0-1.9,0-3.2,0-5.1c0,0-0.6-1.9,0-2.5l0.6-0.6
				c0-0.6,0-1.3,0-2.5c-0.6,0-0.6-0.6-1.3-0.6c0-2.5,0-4.4,0-7c-0.6-0.6,0-5.7,0-7c1.3,0,1.9-0.6,1.9-2.5c0-0.6,0-3.8,0-5.1
				c0.6-0.6,1.9-0.6,1.9-1.9c1.3-1.9-3.2-4.4-3.2-5.7c0-0.6,0-1.3,0-1.9c0-1.3,0-2.5,0-4.4c0-1.3,0-2.5,0-3.8c0-1.9,0-3.2,0-5.1
				c0-0.6,0-1.3,0-1.3c0-0.6,0-1.3,0-1.9c0-1.3,0-2.5,0-3.8c1.9-1.3,1.3-3.8,1.3-6.3c-0.6-0.6,0-5.7,0-7.6c1.3-0.6,1.9-0.6,1.9-2.5
				c-0.6-0.6,0-4.4,0-5.7c0-3.8,0-7.6,0-11.4c0-0.6,1.3-1.9,1.9-2.5c0-1.3-0.6-2.5-0.6-3.8c-1.9-1.3-1.3-4.4-1.3-7.6
				c0-6.3,0-13.3,0-19.6c-0.6-0.6-1.3-1.3-1.3-2.5c0-0.6,0-1.9,0-3.8c0-3.2,0-5.7,0-8.9c1.3-0.6,1.3-1.9,2.5-2.5c0,0,0.6,0,1.3,0
				c0-4.4,0-8.2,0-12.7c-0.6-0.6-1.3-0.6-1.3-1.9c-0.6-1.3,0.6-3.8,1.3-4.4c1.3-3.8,0.6-6.3-0.6-10.1c-0.6-1.3-0.6-3.2-1.9-3.8
				c-0.6-0.6-1.9,0-2.5-0.6c-0.6,0-1.3-0.6-1.9-0.6l-0.6-0.6c-0.6-0.6-0.6-1.9-1.3-2.5l-0.6-0.6c-0.6-1.3-1.9-2.5-3.2-3.2
				c-1.3-1.3-2.5-1.3-3.2-2.5C127.7,154.3,128.4,153,128.4,151.8z"/>
			<path class="st0" d="M273.2,153.7c19.6,0,38.6,0,58.2,0c0.6,0.6,0.6,1.3,1.3,1.9c0.6,0,1.3,0,1.9,0c0,0.6,0,1.3,0,1.3
				c0.6,0.6-1.3,3.2-1.3,3.8c-1.9,3.8-3.2,7.6-5.7,10.1c0,1.9,0,3.8-0.6,5.7c0,0.6,0,1.3,0,1.9l-2.5,3.2c-0.6,0.6-1.3,0.6-1.9,1.3
				c0,1.3,0,2.5,0,3.2s0,0.6,0,1.3c0,1.9-0.6,3.2-1.9,3.8c-0.6,0-0.6,0.6-1.3,0.6c-0.6,1.3-0.6,3.2-1.3,5.1c-0.6,2.5,0,5.1-1.3,7
				c-1.3,2.5-2.5,5.7-3.2,8.2c0,1.9,0,4.4,0,6.3c0,4.4,0,8.2,0,12.7c-1.3,0.6-1.9,4.4-2.5,6.3c-1.3,2.5-1.9,5.7-2.5,7.6
				c-0.6,0.6-1.3,1.9-1.3,2.5c0,0.6,0,1.3,0,1.9c0,1.3,0,2.5-0.6,3.8c-0.6,3.2-3.8,4.4-4.4,7c0,6.3,0,12.7,0,19
				c-1.3,5.1-3.8,9.5-5.1,14.5c-0.6,1.3,0,3.2,0,3.8c0.6,1.9,0,5.1-0.6,6.3c-1.3,3.8-3.2,7.6-4.4,10.8c-0.6,0.6-1.3,1.3-1.3,1.9v0.6
				c0,1.3-0.6,1.9-1.3,3.2c-0.6,1.9-1.3,3.2-1.3,5.7c0.6,0,0.6,0,1.3,0c0.6-1.3,4.4-1.3,6.3-0.6c0.6,0,4.4,0,4.4-0.6
				c0-0.6,0-1.3,0.6-1.3c0.6-1.3,0.6-3.2,1.9-4.4c0.6-0.6,1.3-0.6,1.9-0.6c1.3-0.6,1.9-1.3,3.2-1.9c1.3-0.6,3.2-0.6,4.4-1.3
				c1.9-0.6,3.8-2.5,5.7-3.2c1.3-0.6,2.5-1.3,3.8-1.9c0.6,0,0.6-0.6,0.6-1.3c0.6-1.3,1.9-1.9,2.5-2.5s1.3-0.6,1.3-1.3
				c0.6,0,1.3,1.3,2.5,1.3c0.6,0,1.9,0,2.5,0c1.9,0.6,3.8,0,5.7,0.6c1.3,1.9,2.5,2.5,2.5,5.1c0.6,0.6-0.6,1.3-0.6,1.9
				c0,0.6-0.6,1.3-0.6,1.3c0,0.6,0,3.8,0,4.4s1.3,1.9,1.3,2.5c0,5.7,0,11.4,0,16.4c-0.6,0-1.3,0.6-1.3,1.3s0,1.3,0,1.3
				c-0.6,0-1.3,0-1.9,0s-1.3,0-1.9,0c-7,0-14.5,0-21.5,0c-0.6-1.3-0.6-1.9-2.5-1.9c-0.6-0.6-1.3,0-2.5,0c-1.3-0.6-3.2-0.6-5.1-0.6
				c-1.3,1.9-4.4,3.8-6.3,4.4c-1.9,0-3.8,0-5.7,0c-1.9,0.6-5.7-0.6-7.6,0c-1.3,0.6-1.9,0.6-3.2,1.3c-1.3,0.6-3.2,1.3-5.1,1.3
				c-0.6,0-1.9,0-2.5,0c-1.3-0.6-0.6-1.9-1.3-3.2c-0.6-3.2,0-7.6,0-10.8c1.3-0.6,2.5-3.2,1.9-5.7v-1.3c0-1.9,1.9-2.5,2.5-4.4
				c0-1.3,0.6-2.5,0.6-3.8c0-0.6,0-1.3,0-1.3c0-0.6,0.6-1.3,1.3-1.9c0.6-0.6,1.3-1.3,1.3-1.9c0-0.6,0-1.3,0-1.3c0-0.6,0-1.9,0-2.5
				c0.6-1.9,1.3-3.8,1.9-5.7c0-3.2-0.6-7-0.6-10.1c-0.6-1.9-1.9-3.2-2.5-5.7c0-2.5,0-4.4-0.6-7c0-1.3-0.6-3.8-0.6-5.1
				c0.6-2.5,0-5.7,0.6-7.6c0-1.3,0-1.9,0-3.2c0.6-1.9,1.3-5.1,1.9-7c1.9-4.4,3.2-8.9,5.1-13.3c1.3-3.2,3.2-6.3,3.2-10.8
				c-1.3-0.6-1.3-2.5-0.6-4.4c1.3-1.3,1.9-3.2,2.5-5.1c0-1.3,0-2.5,0-3.2s0.6-1.3,0.6-1.3c0.6-1.3,1.3-1.9,1.3-3.2
				c0.6-0.6,1.3-1.9,1.3-2.5c0-0.6,0-1.3,0.6-2.5c0-0.6,0.6-1.9,0.6-3.2c0-0.6-0.6-1.9,0-3.2c0.6-1.3,1.3-2.5,1.9-3.8
				c1.3-2.5,1.3-5.1,2.5-7c0-0.6,0.6-1.3,1.3-1.9c0.6-1.3,1.3-2.5,2.5-4.4c0.6-0.6,0.6-1.3,1.3-1.9c0.6-1.3,1.9-1.9,2.5-3.2
				c0.6-1.9,0-4.4,0-6.3c0.6-0.6,1.3-0.6,1.3-2.5c-2.5-0.6-6.3-0.6-9.5-0.6c-0.6-0.6-1.9-2.5-3.2-2.5c-1.3-1.3-4.4,0-5.7,0.6
				c-0.6,0-1.9,0-1.9,0c-0.6,1.3-1.3,2.5-1.9,3.8c-1.9,4.4-2.5,10.8-4.4,15.8c-0.6,1.9-1.9,6.3-3.8,6.3c-0.6-0.6-1.9,0-3.2,0
				c0,0.6-0.6,1.3-1.3,1.3c-0.6-0.6-2.5-1.3-2.5-2.5c0.6-0.6,0-1.3,0.6-1.9c0-0.6,0.6-1.3,0.6-1.9c0-1.3-1.3-3.8-0.6-5.7
				c0-1.3,1.3-1.9,1.9-2.5c0-0.6,0.6-1.3,0.6-2.5C273.2,173.3,273.2,163.8,273.2,153.7z"/>
			<path class="st0" d="M263.1,154.9c0,3.2,0,6.3,0,9.5c0.6,1.3,1.3,1.9,1.9,3.2c0,10.1,0,20.9,0,31.6c-1.3,0.6-2.5,5.7-2.5,8.2
				c0,0.6,0.6,1.9,0.6,2.5c-0.6,0.6-0.6,1.3-1.3,1.3c-0.6,0.6-1.3,1.3-1.9,1.9c-0.6,1.3-1.3,3.2-1.9,4.4c-1.3,3.2-2.5,7-4.4,10.8
				c0,0.6-0.6,1.3-1.3,1.3c0,2.5,0,5.1,0,8.2c-3.8,1.9-7,3.8-8.2,8.2c-0.6,2.5,0.6,5.1,0,6.3c-0.6,0.6-1.3,1.3-2.5,1.9
				c-1.9,2.5-3.8,4.4-5.1,7c-1.9,3.8-3.2,7.6-4.4,12c-0.6,1.9-1.9,3.8-2.5,5.7c0,0.6-0.6,3.2,0,4.4c0,0,0,0.6,0,1.3
				c-0.6,1.3-0.6,2.5-1.3,3.2c-1.9,4.4-3.8,9.5-5.7,14.5c-0.6,1.3-1.3,3.2-1.9,4.4c0,0.6-0.6,1.3-1.3,1.9c0.6,0.6,0.6,1.3,1.9,1.3
				c0.6,0,2.5-0.6,3.2-0.6c0.6-0.6,1.3-0.6,1.3-1.3c0.6-0.6,1.3-1.3,1.9-1.3c3.2-1.3,7-1.3,10.1-2.5c1.3-0.6,1.9-1.9,3.2-3.2
				c1.3-1.9,3.2-3.8,4.4-5.7c0.6-1.3,1.3-2.5,2.5-3.2c1.3-0.6,5.1-2.5,5.7-3.2c1.3-1.3,1.3-5.7,3.8-6.3c0.6,0.6,0.6,1.3,1.3,1.3
				s1.3-0.6,1.3-0.6c1.3-2.5,2.5-5.1,3.8-7.6c1.9,0,3.2,0,5.1,0c0,3.2,0,6.3,0.6,8.9c0,0.6-0.6,1.3-0.6,1.9c0,0.6-0.6,1.3-0.6,1.3
				c-0.6,1.3-1.9,2.5-2.5,4.4c0,5.7,0,12,0,17.7c0,1.9,0.6,5.7-0.6,6.3c-0.6,0.6-3.2,1.3-3.8,1.3c-0.6,0-1.3,0.6-1.9,1.3
				c0,0,0,0.6-0.6,0.6c-0.6,0-1.3,0-1.3,0c-0.6,0.6-4.4,0-5.7,0c-3.8,0-7.6,0-12,0c-0.6-2.5-2.5-1.9-5.1-1.9H234
				c-0.6,0.6-1.3,2.5-2.5,2.5c-1.9,1.3-5.1-1.3-6.3-1.3c-4.4,0-8.9,0-13.3,0c-0.6-1.3-1.9-1.3-1.9-3.8c0.6,0,1.9-1.9,1.9-2.5
				s0-1.9,0-2.5c0-0.6,0-1.9,0-2.5c0-1.9,0-3.8,0-5.7c1.3-0.6,1.9-1.3,1.3-3.8c0-0.6,0-1.3-0.6-1.3c-0.6-1.3-2.5-3.2-3.2-5.1
				c0,0,1.3-3.2,1.3-4.4c-0.6-0.6-1.3-1.3-1.3-1.9v-3.8c0-1.3,0-2.5,0-3.8c0.6-2.5,0.6-5.1,1.3-7c0-1.3,0-1.9-0.6-2.5
				c0-0.6,0-0.6,0-1.3c1.9-1.3,2.5-6.3,3.2-8.9c0-0.6,0-1.3,0.6-1.9c0-0.6,0.6-0.6,1.3-1.3c1.3-1.3,1.9-2.5,2.5-3.8
				c0.6-1.3,1.9-1.9,2.5-3.2c-0.6-1.3,0.6-3.2,0.6-3.8c0.6-1.3,0-1.9,0.6-3.2c0-0.6,1.3-1.3,1.3-1.3c0.6-1.3,1.3-2.5,2.5-3.8
				c0.6-0.6,1.3-1.3,1.3-1.9c0.6-1.9,0.6-3.2,1.3-5.1c1.3-4.4,2.5-9.5,4.4-13.9c0-0.6,0-1.3,0.6-1.9c0-0.6,0.6-0.6,1.3-0.6
				c0.6-0.6,1.3-1.3,1.9-1.9s1.3-0.6,1.3-1.3c1.3-1.3,1.3-4.4,2.5-5.1c1.3-0.6,3.8-2.5,3.8-4.4c1.3,1.9,1.3-2.5,1.3-3.8
				c0-0.6,0-1.3,0-1.9c0.6-1.3,1.9-2.5,3.2-3.8c1.9-2.5,3.8-5.1,5.7-7c0.6-1.3,3.2-3.2,3.8-3.8c0-0.6,0-1.9,0-2.5
				c0.6-0.6,0-1.9,0-3.2c0-1.9,0-3.8,0-5.7c-5.7,0-12,0-17.7,0c-3.2,0.6-6.3,3.2-8.2,5.7c-0.6,1.3-1.9,2.5-2.5,4.4
				c0,0.6,0,2.5-0.6,3.2c-1.3,1.3-5.7,1.9-6.3,4.4c0,5.1,0,9.5,0,14.5c-0.6,1.3-1.3,2.5-2.5,3.8c-0.6,1.3-0.6,2.5-2.5,2.5
				c-0.6-0.6-1.3-1.9-1.3-2.5c0-0.6,0.6-1.3,0-1.9c0-0.6-1.3-1.3-1.3-2.5c-0.6-2.5-0.6-5.1-1.3-7.6l-0.6-0.6c0-0.6,0-1.3,0.6-1.9
				c0.6-1.3,1.3-5.1,1.3-6.3c0-1.3-0.6-3.2-1.3-3.8s-1.9-1.9-1.9-1.9c0-5.7,0-10.8,0-15.8c1.3-1.3,1.9-2.5,1.3-4.4
				c1.3-0.6,5.1,0,7,0c0.6,0,1.9,0,3.2,0c2.5,0,5.7,0,8.2,0c1.3,0,5.7,0,8.2,0c6.3,0,16.4-0.6,19.6,0
				C260.6,154.9,261.8,154.9,263.1,154.9z"/>
			<path class="st0" d="M203.6,325.7c-1.3,0-1.9-0.6-2.5-0.6c-0.6,0-1.3,0-1.9,0h-0.6c-0.6,0-1.9,0.6-2.5,1.3
				c-1.3,0-1.9-0.6-3.2-0.6c-1.3,0-5.7,0-7,0c-0.6,0-1.9,0-2.5,0c-1.9,0-4.4,0-6.3,0.6c-0.6,0-3.8,2.5-4.4,3.2
				c-1.3-0.6-3.8-1.3-3.8-3.2c1.9-1.3,3.2-4.4,5.1-5.7c0.6-0.6,2.5-1.3,2.5-2.5c0.6-1.3,0-4.4,0.6-5.7s0-3.2,0.6-4.4
				c0.6-3.8,0.6-8.2,0.6-12c3.2-1.9,0.6-5.1,0-7.6c0-1.3,0.6-3.2,0.6-4.4c0.6-1.3,1.3-3.2,1.9-4.4c0.6-1.3,0-4.4,0-5.1
				c-0.6-3.2,0.6-8.2,0-11.4c-0.6-3.2,0.6-7.6,0-10.1c0-3.8,0-7,0-10.8c-0.6-1.9,0-6.3,0-9.5c0-1.3,0-1.9,0-3.2c-0.6-1.9,0-7,0-10.1
				c0-3.8,0-7.6,0-11.4c0.6-0.6,1.3-1.3,1.3-1.9l0,0l0,0c-1.3-1.3-1.3-0.6-1.3-2.5c-0.6-11.4-1.3-23.4-2.5-34.8
				c-1.3-2.5-5.1-1.9-6.3-3.8v-0.6c-0.6-0.6-1.3,0-2.5,0c-0.6-1.3-2.5-1.9-3.8-3.8c0.6-0.6,1.3-2.5,1.9-3.2c1.9,0.6,4.4,0.6,7,0.6
				s5.7,0,8.2,0c1.9,0.6,6.3,0.6,8.2,0c2.5,0,4.4,0,7-0.6c0.6,0,1.9-0.6,1.9-0.6c0.6,0.6,2.5,2.5,3.2,3.8c0,1.3,0,1.9,0,3.2
				c-0.6,1.3-3.2,1.9-4.4,2.5c-2.5,1.9-4.4,3.8-4.4,8.2c0.6,0,1.3,0.6,1.3,1.3c1.3,1.3,0,3.8-0.6,5.1c-0.6,0.6-0.6,0.6-1.3,1.3
				c-0.6,1.3,0,3.8,0,5.7c0,4.4,0,8.9,0,13.3c0.6,1.9,0,5.1,0,7.6c0,5.7,0,11.4,0,16.4c0,1.3,0,2.5,0,3.2c0,0-0.6,1.3,0,1.3
				c0.6,1.3,0.6,2.5,0.6,3.2s0,1.3,0,1.9l0.6,0.6c0,1.3,0.6,3.2,0.6,4.4c-0.6,1.9-1.9,2.5-2.5,4.4c0,0.6,0,1.9,0,2.5
				c0,2.5,0,4.4,0,6.3c0,1.3,0.6,2.5,0.6,3.2c0,1.3,0,2.5,0,3.8c0,0.6,0,1.3,0,1.3h0.6c0,0.6,0,0.6,0,1.3c0.6,1.9,0,3.8,0,5.7
				c-1.3,0.6-2.5,1.9-3.2,3.2c-0.6,1.9,0.6,6.3,1.3,8.2c0,1.3-0.6,2.5,0,3.8c0.6,1.3,1.3,2.5,1.9,3.8c0,0.6,0,1.3,0.6,1.9
				c0,0.6,0.6,0,0.6,0.6c-0.6,0.6,0,2.5,0,3.2c-0.6,2.5-0.6,6.3-0.6,8.9c-3.2,1.3-2.5,3.8-1.9,7c0,0.6,0.6,1.9,0.6,2.5
				c0.6,1.9,2.5,1.9,3.8,3.2c1.9,1.3,3.8,2.5,5.7,3.8c0.6,0,0.6,0.6,1.3,0.6C203.6,320,203.6,323.8,203.6,325.7z"/>
			<path class="st0" d="M128.4,288.4c0-1.3,0-3.2,0-4.4c-0.6-1.3-0.6-3.2-0.6-4.4c0-2.5,0-5.1,0-7.6c-0.6-1.3-0.6-6.3,0-7.6
				c0-0.6-1.3-1.3-1.3-1.3c-0.6-0.6-1.9-2.5-2.5-3.8c0-0.6,0-1.9,0-2.5c-0.6-3.2-0.6-7.6,0-10.1c0-0.6,0.6-4.4,0.6-5.1
				c0-1.3-1.3-1.3-1.9-1.9v-0.6c-0.6-1.3-1.9-1.9-2.5-3.2c-0.6,0-0.6,0-0.6,0c-0.6,0-1.3-1.3-1.9-1.9c-1.3-1.3,2.5-5.7,1.3-7.6
				c-1.3-1.3-3.8-1.3-5.7-1.3c-1.9-0.6-2.5-1.9-3.8-2.5c0-1.9,0.6-1.9,1.3-2.5c1.3-1.3,1.9-2.5,3.2-3.8c0.6-0.6,1.3-1.3,1.3-1.9
				c0.6-0.6,0.6-1.3,0.6-1.9c0.6-1.3,1.9-2.5,3.2-3.8c1.3-1.9,1.9-3.8,3.2-5.7c1.3-1.9,3.2-4.4,3.8-7c1.3-3.2,0-8.9-0.6-12
				c0-1.9,0-4.4,0-6.3c-1.3-5.1-1.9-10.8-5.7-13.9c-1.3-0.6-2.5-1.9-4.4-2.5c-1.9-0.6-3.2-0.6-5.1-1.3c-0.6,0-1.9-1.3-2.5-1.9
				c-0.6-1.3-0.6-3.2-1.9-3.2c-0.6-0.6-4.4,0-5.7,0c-2.5,0-5.1,0-8.2,0c-2.5,0.6-8.2,1.3-11.4,0.6c-1.9,0-3.2,0-5.1,0
				c-3.8,0-7.6,0-11.4,0.6c-1.3,0-1.9,0-3.2,0c-1.3,0.6-6.3,1.3-7.6,0.6c-1.3,0-1.9,0-3.2,0c-0.6,0-1.3,1.3-1.3,1.9
				c0,0.6,0,1.9,0,2.5c0,1.3,0.6,1.3,1.3,1.9c1.9,3.2,5.7,4.4,7.6,8.2c1.3,0.6,3.2,1.3,3.8,1.3c0.6,0,0.6,0,0.6,0.6
				c0.6,1.3,0,4.4,0.6,5.7c0,1.3-1.3,1.9-1.9,2.5c0,3.8,0,8.2-0.6,12c0,0.6,0,2.5,0,3.8c0,2.5,0,5.7,0,7.6c0,3.8,0,8.2,0,12
				c0,1.9,0,3.8,0,5.7c0.6,1.9,2.5,2.5,1.9,5.1c-0.6,1.3,0,3.8,0,5.1c0.6,1.3-0.6,1.9-0.6,3.2s0,2.5,0,3.8c-0.6,1.9,0,8.9,0.6,10.1
				c0,0.6,0.6,0.6,0.6,1.3c0,0.6,0,1.3,0,2.5c0.6,1.9,0,5.7,0.6,7c0,0,0,0,0,0.6l0,0c-1.3,0-1.9,0-1.9,0.6c-0.6,0-0.6,0.6-0.6,1.3
				c0,1.3,0,1.9,0,2.5c0,5.1,0,10.8,0,15.8c0,2.5,0,5.1,0,7.6c0.6,1.9,0.6,4.4,0.6,7c0,1.3,0,2.5,0,3.8c0,0.6,0,1.9,0,2.5
				c0.6,1.9,0.6,4.4,0.6,6.3c0,1.3,0,3.2,0,3.8c0,1.9,0,3.8,0,5.7c0.6,1.9,0,5.1,0,7c0,0.6,0,1.9,0,2.5c0,2.5,0,7-0.6,10.1
				c0,1.3,0,1.9,0,3.2c-1.3,3.8-2.5,8.2-2.5,12.7c-0.6,0.6-1.3,1.3-1.3,1.3c-2.5,0.6-3.8,1.3-5.1,1.9c0.6,0.6,0.6,0.6,1.3,1.3
				c0.6,0.6,5.1,1.3,7,0.6c2.5-0.6,3.2-0.6,5.7,0c1.9,0,4.4,0,6.3,0c1.3,0,2.5,0,3.8,0c0,0,0.6,0,1.3,0c1.9-0.6,2.5-2.5,4.4-3.2
				c1.3,0,2.5,1.3,3.2,1.3c1.3,0,2.5-0.6,3.2-0.6c3.2-0.6,6.3-1.3,10.1-1.9c0.6-0.6,0.6-1.9,1.3-2.5c0.6-1.3,1.9-2.5,3.2-3.2
				c2.5-1.9,5.7-3.8,8.9-5.7c1.3-0.6,2.5-1.3,3.8-1.9c0.6,0,1.3-0.6,1.9-0.6c0,0,0-1.9,0-3.2c0.6-2.5,1.3-5.1,1.9-7.6
				c2.5-7,9.5-13.3,7.6-23.4c-0.6-1.9,0-5.7-0.6-7c0-1.3,1.9-3.2,2.5-4.4c0.6-0.6,0.6-2.5,0.6-3.8C129,290.9,129,289,128.4,288.4z
				 M105,304.8c0,1.9-0.6,3.2-0.6,5.1c-0.6,1.3-1.3,2.5-1.9,4.4c0,3.2-0.6,6.3-0.6,9.5c-0.6,1.9-1.9,3.2-3.2,4.4
				c-1.3,1.9-3.2,3.2-4.4,4.4c-0.6,0.6-1.3,1.3-1.9,1.9c-0.6,0-0.6,0-1.3,0s-1.3,1.3-1.9,1.3c-1.3,0.6-1.9,1.9-3.2,2.5
				c-0.6,0-1.9,1.3-3.2,0.6c-0.6,0-1.3,0-1.9,0c1.3-2.5,2.5-5.1,3.2-7.6c0-1.9,0-3.8,0-5.7c0-1.3,0-4.4,0-5.1c0-1.9,0.6-7-0.6-7.6
				c0.6-2.5,0.6-3.8,2.5-5.1c0-1.9,0-4.4,0.6-5.7c0-5.7,0-11.4,0-17.1c0-3.2,0.6-7.6-1.3-8.9c0-1.3,0-1.9,0-3.2
				c0-0.6,1.3-1.3,1.9-1.9c0-1.3,0-1.9,0.6-2.5c0.6-2.5,0.6-4.4,0-7c-0.6-1.3,0-2.5,0-3.8c-0.6-1.9,0.6-5.1,0-5.7c0-0.6,0-0.6,0-0.6
				h0.6c0-5.7,0-11.4,0.6-17.1c1.3,0,1.9,1.9,2.5,2.5c1.9,1.9,3.8,4.4,6.3,5.7c1.3,0.6,3.2,1.3,4.4,2.5c1.3,2.5,0.6,7,2.5,8.9
				c0,0.6-0.6,0.6-0.6,0.6c0,0.6,0.6,1.3,0.6,1.9c0,0.6,0,1.9,0,2.5c0.6,3.2,0.6,8.9-1.3,10.8c0.6,1.9,1.9,3.8,2.5,5.7
				c0.6,1.3,0,3.8,0.6,5.1c0,1.3-0.6,0.6-1.3,1.3c0,0.6-0.6,1.3-0.6,1.9c-0.6,2.5,1.3,5.7,1.9,7c0,0.6,0,1.3,0,1.9
				c0,0.6,0,0.6-0.6,1.3v0.6h0.6C106.9,298.5,106.2,301.7,105,304.8z M105,184c-0.6,1.3,1.3,4.4,1.3,5.1c0,0.6-0.6,1.9-0.6,2.5
				c-0.6,1.9-0.6,3.8-1.3,6.3c0,0.6,0,2.5,0,3.2c0,1.3,0.6,3.2,0,3.8c-1.3,0.6-3.8,0.6-5.1,1.3c0,0,0,0,0,0.6
				c-0.6,0.6-1.9,1.3-2.5,2.5c-1.3,1.3-1.9,6.3-3.8,7c0,0-1.3,0-1.9,0c-1.3-0.6-1.9-1.3-3.2,0l0,0c0-8.2,0-15.8,0-24
				c0-3.2,0-5.7,0-8.9c0-0.6,0.6-1.3,0.6-1.9l0.6-0.6c0.6-0.6,0-1.9,0.6-2.5s1.3-0.6,1.3-0.6c0.6,0,0.6,0.6,1.3,0.6s2.5,0,3.2-0.6
				c1.9-0.6,2.5,0,3.8,0c0,0.6,0.6,1.3,0.6,1.9c1.3,0.6,3.2,1.3,4.4,1.9c0.6,0,1.9,0,2.5,0c0,0,0,0,0.6,0
				C106.9,182.1,105,182.8,105,184z"/>
		</g>
	</g>
</g>
</svg>
